<svg xmlns="http://www.w3.org/2000/svg" viewBox="0 0 1920 1080" width="1920" height="1080">
  
  <defs>
    <radialGradient id="paper" cx="50%" cy="50%" r="70%">
      <stop offset="0%" stop-color="#faf6ee"/>
      <stop offset="100%" stop-color="#ece4d2"/>
    </radialGradient>
    <filter id="ink-bleed">
      <feTurbulence type="fractalNoise" baseFrequency="0.04" numOctaves="3" result="noise"/>
      <feDisplacementMap in="SourceGraphic" in2="noise" scale="3" xChannelSelector="R" yChannelSelector="G"/>
    </filter>
  </defs>
  <rect width="1920" height="1080" fill="url(#paper)"/>
  <rect width="1920" height="1080" fill="none" stroke="#d5c8ad" stroke-width="24" opacity="0.4"/>
  
  <!-- 标题与印章 -->
  <g transform="translate(100, 80)">
    <rect x="0" y="0" width="100" height="42" rx="4" fill="#a63426"/>
    <text x="50" y="28" font-family="SimSun, serif" font-size="20" font-weight="bold" fill="#ffffff" text-anchor="middle">220</text>
    <text x="130" y="38" font-family="SimSun, serif" font-size="52" font-weight="bold" fill="#2b261f">三国</text>
    <text x="210" y="38" font-family="SimSun, serif" font-size="26" fill="#7a6e5d">· 魏 · 蜀 · 吴</text>
  </g>

  <!-- 地面墨线 -->
  <path d="M 120 860 Q 600 855, 1100 862 T 1820 858" fill="none" stroke="#3a342a" stroke-width="5" stroke-linecap="round" filter="url(#ink-bleed)"/>

  <!-- 左下角墨水团子 -->
  <g transform="translate(260, 800)">
    <ellipse cx="0" cy="0" rx="40" ry="36" fill="#2b261f" filter="url(#ink-bleed)"/>
    <ellipse cx="-12" cy="-4" rx="5" ry="6" fill="#ffffff"/>
    <ellipse cx="12" cy="-4" rx="5" ry="6" fill="#ffffff"/>
    <circle cx="-11" cy="-4" r="2.5" fill="#000000"/>
    <circle cx="13" cy="-4" r="2.5" fill="#000000"/>
    <circle cx="-20" cy="8" r="6" fill="#e88574" opacity="0.6"/>
    <circle cx="20" cy="8" r="6" fill="#e88574" opacity="0.6"/>
    <line x1="28" y1="5" x2="60" y2="-48" stroke="#5c4a35" stroke-width="5" stroke-linecap="round"/>
    <polygon points="58,-48 108,-32 55,-14" fill="#a63426"/>
    <text x="72" y="-28" font-family="SimSun" font-size="16" fill="#ffffff" font-weight="bold">华</text>
  </g>
  
  
        <g transform="translate(960, 520)">
          <!-- 草船借箭 -->
          <g transform="translate(0, 60)">
            <!-- 船身 -->
            <path d="M -220 50 Q 0 110, 220 50 L 160 120 L -160 120 Z" fill="#7a552e"/>
            <!-- 密密麻麻的箭矢 -->
            <line x1="-150" y1="-40" x2="-120" y2="50" stroke="#3a342a" stroke-width="4"/>
            <line x1="-100" y1="-60" x2="-80" y2="40" stroke="#3a342a" stroke-width="4"/>
            <line x1="-50" y1="-50" x2="-40" y2="45" stroke="#3a342a" stroke-width="4"/>
            <line x1="50" y1="-50" x2="40" y2="45" stroke="#3a342a" stroke-width="4"/>
            <line x1="100" y1="-60" x2="80" y2="40" stroke="#3a342a" stroke-width="4"/>
            <line x1="150" y1="-40" x2="120" y2="50" stroke="#3a342a" stroke-width="4"/>
            <!-- 诸葛亮摇鹅毛扇 -->
            <g transform="translate(0, -30)">
              <ellipse cx="0" cy="50" rx="45" ry="60" fill="#3c594c"/>
              <circle cx="0" cy="-10" r="32" fill="#fcecd4"/>
              <!-- 羽扇 -->
              <path d="M 40 -10 Q 70 -40, 80 0 Z" fill="#ffffff" stroke="#3a342a" stroke-width="2"/>
            </g>
            <text x="0" y="170" font-family="SimHei" font-size="26" font-weight="bold" fill="#a63426" text-anchor="middle">借了十万支 · 一支没还！</text>
          </g>
        </g>
      
  
  <g transform="translate(960, 950)">
    <rect x="-650" y="-45" width="1300" height="72" rx="36" fill="#24211d" opacity="0.90"/>
    <text x="0" y="5" font-family="Microsoft YaHei, SimHei, sans-serif" font-size="28" font-weight="bold" fill="#ffffff" text-anchor="middle">
      三国：魏蜀吴三分天下。诸葛亮草船借箭，一口气借了十万支——一支都没还。
    </text>
  </g>
  </svg>
  